<?xml version="1.0" encoding="UTF-8"?>
<svg id="OBJECTS" xmlns="http://www.w3.org/2000/svg" version="1.1" viewBox="0 0 750 500">
  <!-- Generator: Adobe Illustrator 29.3.1, SVG Export Plug-In . SVG Version: 2.1.0 Build 151)  -->
  <defs>
    <style>
      .st0 {
        font-family: JosefinSans-Regular, 'Josefin Sans';
        font-size: 23.17px;
      }

      .st0, .st1, .st2, .st3 {
        fill: #414151;
      }

      .st1 {
        font-family: JosefinSans-Light, 'Josefin Sans';
        font-size: 71.28px;
        font-weight: 300;
      }

      .st4 {
        fill: #ffe4da;
      }

      .st2 {
        font-family: JosefinSans-SemiBold, 'Josefin Sans';
        font-size: 128.89px;
        font-weight: 600;
      }
    </style>
  </defs>
  <circle class="st4" cx="539.93" cy="204.01" r="38.28"/>
  <g>
    <path class="st4" d="M641.29,75.62c-.93-1.99-2.84-2.21-4.37-2.85-10.83-4.56-22.01-7.92-33.44-10.53-3.38-.77-5.98-.2-8.73,1.89-8.2,6.25-17.16,11.24-26.58,15.43-2.72,1.21-5.5,2.22-8.51,2.36-2.07.1-3.97-.35-5.04-2.42-1.06-2.06-.34-3.89.9-5.54,1.56-2.08,3.63-3.58,5.77-5.03,5.33-3.6,10.97-6.68,17.28-9.34-1.93-1.7-3.58-1.36-5.04-1.43-7.91-.35-15.83-.38-23.72-.9-4.67-.31-7.91,1.47-10.66,5.01-3.4,4.36-6.92,8.64-10.57,12.79-2.21,2.52-4.67,4.83-7.77,6.32-1.88.91-3.79,1.32-5.59-.09-2.09-1.65-1.76-3.85-1.08-6,.86-2.71,2.57-4.9,4.52-6.88,2.07-2.1,4.24-4.1,6.09-6.9-2.22.78-4.45,1.51-6.65,2.33-8.17,3.05-16.49,5.47-25.25,6.1-4.36.31-8.74.2-12.87-1.5-2.42-.99-4.75-2.31-4.87-5.42-.12-3.09,1.98-4.53,4.4-5.71,2.71-1.33,5.65-1.76,8.58-2.19,8.03-1.17,16.14-1.39,24.23-1.81,2.55-.13,5.1-.32,7.54-.48.74-2.3-1.11-2.59-2.07-3.3-3.53-2.6-7.02-5.22-9.89-8.58-1.17-1.37-2.36-2.73-2.94-4.46-.78-2.32-1.35-4.71.51-6.76,1.86-2.05,4.26-1.75,6.63-1.07,3.88,1.12,7.22,3.32,10.32,5.82,6.19,4.99,12.33,10.05,18.37,15.24,1.58,1.36,2.99,2.36,5.19,2.31,9.89-.24,19.77.24,29.65.83.58.03,1.16,0,1.56-.92-2.91-3.23-6-6.53-8.94-9.96-3.31-3.86-5.38-8.37-6.32-13.35-.55-2.88-.34-5.77,2.36-7.45,2.79-1.74,5.4-.32,7.59,1.55,5.8,4.94,10.44,10.92,14.76,17.14,2.84,4.09,5.53,8.29,8.1,12.55,1.21,2.01,2.59,3.3,4.99,3.73,13.7,2.48,26.95,6.58,39.84,11.88.52.21,1.14.2,2.09.36.08-2.45-1.44-4.16-2.27-6.03-2.72-6.1-4.06-12.47-4.06-19.12,0-.99.11-1.99.28-2.96.59-3.24,1.53-6.43,5.26-7.11,3.68-.66,5.83,1.91,7.6,4.68,2.41,3.76,3.56,8.01,4.23,12.35,1.15,7.47,2.17,14.96,3.1,22.46.29,2.33.97,4.04,3.15,5.3,13.89,7.97,26.11,18.09,37.19,29.65.54.56,1.2.99,2.1,1.71,1.03-2.74-.48-4.88-1.04-7-1.46-5.58-3.17-11.11-4.02-16.83-.98-6.55-1.03-13.1,1.28-19.43.99-2.71,2.42-5.24,5.72-5.19,3.31.05,4.72,2.68,5.66,5.38,1.52,4.35,2.1,8.9,2.57,13.45,1.22,11.72,1.08,23.45.18,35.14-.35,4.5.74,8.02,3.75,11.4,4.35,4.91,8.36,10.13,12.38,15.32,1.26,1.63,3.55,3.81,1.36,5.67-2.7,2.29-4.01-.87-5.44-2.6-4.44-5.37-8.78-10.82-13.29-16.13-3.14-3.7-3.64-3.74-8.05-1.62-10.29,4.95-21.02,7.97-32.56,7.67-2.57-.07-5.19-.13-7.55-1.33-3.05-1.55-3.45-4.57-.8-6.71,2.33-1.88,5.21-2.79,8.05-3.64,7.98-2.36,16.17-3.62,24.41-4.72,1.89-.25,3.91-.01,5.55-1.12.26-1.33-.59-1.95-1.25-2.67-9.97-10.95-21.03-20.58-33.47-28.61-2.66-1.72-4.88-2.26-8.16-.96-12.15,4.84-25.03,5.2-37.94,4.92-1.16-.03-2.39-.27-3.47-.71-2.96-1.23-3.42-3.89-1.05-6.13,1.62-1.53,3.71-2.17,5.81-2.79,6.09-1.79,12.35-2.63,18.63-3.43,1.9-.24,3.89-.07,5.77-1.05M649.32,69.77c1.07-12.16-2.85-27.44-8.11-30.53-1.9,11.49,2.4,21.01,8.11,30.53M703.03,102.54c2.06-10.24.17-29.37-3.45-35.2-3.79,12.23-.22,23.22,3.45,35.2M587.64,51.74c-5.67-8.95-10.91-18.4-20.33-25.5,1.56,9.84,8.54,18.61,20.33,25.5M481.67,63.41c8.29,2.51,16.06.81,23.81-1.28.33-.09.85-.63.81-.71-.27-.5-.63-.96-1.03-1.37-1.11-1.14-2.56-.97-3.91-.83-5.29.54-10.58,1.14-15.86,1.8-1.3.16-2.74.3-3.82,2.39M511.31,34.5c2.82,6.84,13.32,14.55,20.91,15.47-6.56-5.67-12.52-12.13-20.91-15.47M562.88,75.48c9.44-2.97,19.7-8.77,24.66-13.97-7.75,3.57-15.12,6.92-22.04,11.15-.94.57-2.19.88-2.62,2.83M690.55,124.22c-7.35.48-14.59,1.3-21.37,4.24,7.58.77,14.64-1.02,21.37-4.24M642.27,81.94c-4.6-.14-9.2.21-14.06,1.46,1.87,1.17,3.41.55,4.86.39,3.08-.34,6.23-.35,9.2-1.86"/>
    <rect class="st4" x="106.42" y="266.15" width="333.61" height="203.61"/>
    <rect class="st4" x="106.42" y="86.55" width="333.61" height="25.05"/>
    <path class="st3" d="M639.47,89.62c-1.11-1.9-3.03-1.93-4.62-2.44-11.2-3.54-22.65-5.85-34.27-7.4-3.44-.46-5.97.35-8.52,2.69-7.59,6.98-16.05,12.78-25.04,17.82-2.6,1.46-5.28,2.72-8.26,3.13-2.05.29-3.99.02-5.24-1.95-1.25-1.96-.7-3.85.39-5.6,1.36-2.21,3.28-3.9,5.28-5.54,4.98-4.08,10.3-7.66,16.34-10.9-2.08-1.52-3.69-1.03-5.15-.96-7.9.38-15.79,1.08-23.7,1.29-4.68.12-7.74,2.19-10.15,5.97-2.98,4.66-6.09,9.24-9.34,13.71-1.97,2.71-4.21,5.24-7.15,7.01-1.79,1.08-3.65,1.67-5.57.42-2.23-1.45-2.11-3.68-1.63-5.87.6-2.78,2.11-5.12,3.87-7.27,1.87-2.28,3.84-4.47,5.43-7.43-2.14.98-4.29,1.91-6.41,2.94-7.85,3.79-15.92,6.97-24.58,8.4-4.32.71-8.68,1-12.95-.3-2.5-.77-4.95-1.86-5.35-4.94-.41-3.06,1.55-4.69,3.85-6.09,2.57-1.57,5.46-2.28,8.34-2.97,7.89-1.9,15.94-2.87,23.96-4.04,2.53-.37,5.04-.79,7.47-1.17.52-2.35-1.34-2.47-2.37-3.09-3.75-2.26-7.47-4.55-10.64-7.63-1.29-1.25-2.6-2.5-3.34-4.17-.99-2.24-1.77-4.57-.12-6.77,1.66-2.22,4.08-2.13,6.5-1.68,3.97.76,7.5,2.64,10.81,4.84,6.63,4.4,13.21,8.87,19.7,13.48,1.7,1.21,3.2,2.08,5.38,1.82,9.83-1.15,19.71-1.58,29.6-1.91.58-.02,1.15-.1,1.46-1.06-3.19-2.95-6.57-5.95-9.82-9.09-3.65-3.54-6.12-7.83-7.53-12.71-.81-2.82-.87-5.72,1.66-7.64,2.62-1.99,5.35-.81,7.71.84,6.23,4.38,11.4,9.91,16.28,15.71,3.21,3.81,6.27,7.74,9.22,11.75,1.39,1.89,2.88,3.05,5.31,3.26,13.87,1.2,27.44,4.07,40.77,8.15.54.17,1.15.1,2.11.16-.14-2.45-1.81-4.01-2.82-5.79-3.28-5.83-5.19-12.04-5.81-18.66-.09-.98-.08-1.99.01-2.98.29-3.28.93-6.55,4.58-7.56,3.6-1,5.98,1.37,8,3.96,2.74,3.52,4.28,7.65,5.35,11.91,1.84,7.33,3.54,14.69,5.16,22.08.5,2.3,1.34,3.94,3.63,4.98,14.56,6.65,27.67,15.6,39.76,26.09.59.51,1.29.87,2.25,1.51.77-2.82-.93-4.82-1.68-6.87-1.97-5.43-4.19-10.77-5.56-16.39-1.58-6.43-2.24-12.95-.52-19.46.74-2.79,1.92-5.44,5.22-5.69,3.3-.26,4.95,2.23,6.13,4.83,1.92,4.19,2.91,8.67,3.8,13.16,2.29,11.56,3.24,23.25,3.42,34.98.07,4.52,1.48,7.91,4.78,11.01,4.79,4.48,9.26,9.32,13.74,14.11,1.41,1.51,3.89,3.47,1.88,5.52-2.48,2.53-4.08-.5-5.66-2.09-4.92-4.94-9.74-9.96-14.72-14.83-3.47-3.39-3.97-3.39-8.16-.87-9.79,5.87-20.2,9.87-31.71,10.64-2.57.17-5.18.35-7.64-.63-3.18-1.26-3.86-4.23-1.41-6.6,2.15-2.09,4.93-3.26,7.68-4.36,7.73-3.09,15.77-5.1,23.87-6.95,1.86-.42,3.89-.37,5.43-1.62.14-1.35-.77-1.89-1.49-2.54-10.93-9.98-22.84-18.55-35.96-25.4-2.81-1.47-5.07-1.8-8.21-.2-11.65,5.94-24.44,7.49-37.32,8.4-1.16.08-2.41-.05-3.52-.39-3.06-.95-3.76-3.56-1.61-6,1.47-1.67,3.5-2.51,5.53-3.32,5.9-2.35,12.06-3.76,18.23-5.13,1.87-.42,3.86-.43,5.65-1.57M646.92,83.06c-.06-12.2-5.37-27.06-10.9-29.65-.83,11.62,4.32,20.7,10.9,29.65M703.42,110.73c1.11-10.39-2.54-29.26-6.68-34.73-2.65,12.53,1.92,23.14,6.68,34.73M583.84,70.8c-6.47-8.39-12.56-17.32-22.6-23.52,2.46,9.65,10.22,17.74,22.6,23.52M479.4,92.2c8.49,1.74,16.07-.68,23.59-3.47.32-.12.79-.71.74-.78-.31-.47-.71-.9-1.15-1.27-1.21-1.03-2.64-.73-3.97-.47-5.22,1.03-10.43,2.11-15.63,3.26-1.28.28-2.7.55-3.58,2.73M506.25,60.68c3.44,6.55,14.61,13.26,22.24,13.48-7.05-5.04-13.58-10.93-22.24-13.48M561.38,96.72c9.12-3.82,18.81-10.55,23.26-16.19-7.39,4.27-14.42,8.28-20.92,13.13-.88.66-2.1,1.08-2.35,3.06M693,133.47c-7.28,1.16-14.41,2.64-20.89,6.19,7.62.06,14.49-2.37,20.89-6.19M641.02,95.83c-4.59.28-9.14,1.06-13.87,2.75,1.97.99,3.44.24,4.88-.06,3.03-.62,6.17-.93,8.99-2.7"/>
    <g>
      <polygon class="st3" points="750 391.03 0 391.03 0 189.05 95.4 189.05 95.4 196.37 7.32 196.37 7.32 383.71 742.68 383.71 742.68 196.37 727.29 196.37 727.29 189.05 750 189.05 750 391.03"/>
      <text class="st2" transform="translate(107.75 250.58)"><tspan x="0" y="0">FASHION</tspan></text>
      <text class="st1" transform="translate(94.76 336.26)"><tspan x="0" y="0" xml:space="preserve"> S T O R E</tspan></text>
      <rect class="st3" x="452.4" y="327.62" width="251.62" height="2.75"/>
      <path class="st3" d="M537.33,190.36c-17.57,0-17.47,27.31.15,27.31s17.47-27.31-.15-27.31Z"/>
    </g>
    <text class="st0" transform="translate(472.78 434.1)"><tspan x="0" y="0">Thời trang cho phái nữ</tspan></text>
    <text/>
    <text/>
  </g>
</svg>